<svg width="220" height="55" viewBox="0 0 220 55" fill="none" xmlns="http://www.w3.org/2000/svg" class="hidden xl:block"><path d="M5.12134 19.0214C5.55145 19.0214 5.85302 18.68 5.85302 18.2648C5.85302 17.8496 5.55145 17.5107 5.12134 17.5107C4.69123 17.5107 4.38965 17.8521 4.38965 18.2648C4.38965 18.6776 4.69123 19.0214 5.12134 19.0214Z" fill="white"></path><path d="M2.19458 19.0214C2.61233 19.0214 2.92626 18.68 2.92626 18.2648C2.92626 17.8496 2.60986 17.5107 2.19458 17.5107C1.74963 17.5107 1.46289 17.8521 1.46289 18.2648C1.46289 18.6776 1.74963 19.0214 2.19458 19.0214Z" fill="white"></path><path d="M14.248 22.1767C14.248 22.545 14.5852 22.8341 15.1656 22.8341C15.7461 22.8341 16.0971 22.4659 16.0971 22.0592C16.0971 21.1805 14.9888 20.5751 13.7837 20.5751C11.791 20.5751 10.0414 21.8356 10.0414 23.5818C10.0414 24.6729 10.6522 25.5652 11.6169 26.0893H7.2802C6.52564 26.0373 6.44548 25.3935 6.44548 25.0389V21.6368C6.44548 21.3612 6.46207 21.0201 6.55881 20.679H5.75451C5.64118 20.7716 5.67435 20.8236 5.64118 20.8755C5.57762 21.0337 5.49746 21.2031 5.4643 21.2031C5.4643 21.2031 5.36755 21.1511 5.19066 21.0585C4.82029 20.862 4.20947 20.5322 3.2946 20.5322C1.27141 20.5322 0 22.0163 0 23.5276C0 25.1563 1.26864 26.575 2.95741 26.575C4.32279 26.575 5.04694 25.773 5.2874 25.2082C5.2874 26.4033 6.18844 26.5614 7.2802 26.575H13.6428C14.6378 26.575 15.3786 26.3129 15.9728 25.8385L15.572 25.6149C15.1547 25.9176 14.6239 26.087 13.9329 26.087C12.3409 26.087 11.6527 24.9575 11.6527 23.435C11.6527 21.8198 12.4074 20.9931 13.8391 20.9931C14.6571 20.9931 15.1077 21.2686 15.3342 21.6233C15.221 21.6098 15.1242 21.5961 15.0137 21.5961C14.5328 21.5961 14.2592 21.8063 14.2592 22.1744M4.89768 24.9485C4.64064 25.6443 3.94966 26.1299 3.16194 26.1299C2.48754 26.1299 1.45936 25.5404 1.45936 23.6089C1.45936 22.2558 2.03701 20.9953 3.29184 20.9953C4.89768 20.9953 5.07458 22.2422 5.07458 23.3582C5.07458 24.0539 5.04141 24.5532 4.89768 24.9463" fill="white"></path><path d="M19.0229 26.5749V17.5107L17.5615 17.8645C18.0301 18.0622 18.0416 18.1623 18.0416 18.4891V26.5724H19.0249L19.0229 26.5749Z" fill="white"></path><path d="M23.4121 20.5347L21.5475 20.8958C22.165 21.1 22.1795 21.1995 22.1795 21.5482V25.2261C22.0685 27.9478 21.0578 28.9738 19.0244 29.539C19.543 29.5814 19.8517 29.5963 20.035 29.5963C23.1757 29.5963 23.4145 26.7301 23.4145 24.1379V20.5322L23.4121 20.5347Z" fill="white"></path><path d="M27.0725 19.0214C27.4674 19.0214 27.8042 18.6863 27.8042 18.2661C27.8042 17.8459 27.4674 17.5107 27.0725 17.5107C26.6776 17.5107 26.3408 17.8309 26.3408 18.2661C26.3408 18.7013 26.6776 19.0214 27.0725 19.0214Z" fill="white"></path><path d="M32.1975 18.5312V24.9788C32.1975 25.8496 31.8162 26.3952 30.8911 26.3952H28.4263C28.5601 25.6414 28.5914 24.8316 28.5914 24.0345V20.3589L26.4084 20.7269C27.1199 20.9351 27.137 21.0367 27.137 21.392V25.1413C27.0202 27.9157 25.8305 28.9641 23.4141 29.5378C24.0259 29.5809 24.4073 29.5962 24.6066 29.5962C26.9236 29.5962 27.8998 28.4438 28.2954 26.941H31.2413C32.6473 26.941 33.6577 26.2633 33.6577 25.0219V17.5107L31.4746 17.8788C32.2033 18.0845 32.2033 18.1886 32.2033 18.5287" fill="white"></path><path d="M35.6002 18.4916V26.5749H36.5835V17.5107L35.1201 17.8645C35.5887 18.0622 35.6002 18.1623 35.6002 18.4891" fill="white"></path><path d="M38.0479 24.6745C38.0479 26.0643 39.4148 26.9037 40.4811 26.9336H40.5604C41.7196 26.9336 42.198 26.3831 42.5316 25.9049C42.2309 28.6124 40.451 29.1928 39.1141 29.4668L38.7341 29.5241C39.3055 29.5664 39.8139 29.5963 40.0381 29.5963C41.7387 29.5963 43.9013 28.9886 43.9013 24.0791V20.5322H42.6928C39.9917 20.5322 38.0505 22.1537 38.0505 24.6719M42.4988 24.3107C42.4988 25.4367 41.7715 26.4752 40.8228 26.4828C39.9206 26.4479 39.4312 25.4391 39.4312 24.5873C39.4312 22.4302 40.924 20.9806 42.3237 20.9806H42.4988V24.3107Z" fill="white"></path><path d="M51.2177 20.5322C49.3739 20.5322 48.291 22.0169 48.291 23.5671C48.291 25.1174 49.3739 26.575 51.2177 26.575C53.0616 26.575 54.1445 25.0903 54.1445 23.5671C54.1445 22.044 53.0497 20.5322 51.2177 20.5322ZM51.2177 26.1298C50.1086 26.1298 49.6101 25.2101 49.6101 23.5671C49.6101 21.9243 50.1086 20.991 51.2177 20.991C52.3269 20.991 52.8135 21.8972 52.8135 23.5671C52.8135 25.2372 52.315 26.1298 51.2177 26.1298Z" fill="white"></path><path d="M62.1927 28.0854C61.7626 28.0854 61.4609 28.4144 61.4609 28.8331C61.4609 29.2518 61.7626 29.5961 62.1927 29.5961C62.6228 29.5961 62.9243 29.2518 62.9243 28.8331C62.9243 28.4144 62.6228 28.0854 62.1927 28.0854Z" fill="white"></path><path d="M60.7296 28.0854C60.2848 28.0854 59.998 28.4144 59.998 28.8331C59.998 29.2518 60.2848 29.5961 60.7296 29.5961C61.1474 29.5961 61.4614 29.2518 61.4614 28.8331C61.4614 28.4144 61.145 28.0854 60.7296 28.0854Z" fill="white"></path><path d="M76.2646 18.5759V25.3559C76.2646 26.2534 75.9199 26.8419 75.144 26.8419H73.9929C73.3199 26.8419 72.7986 26.1921 72.5442 25.4651C72.575 25.2947 72.5879 25.1083 72.5879 24.9086C72.5879 23.4839 71.6167 21.5957 69.8106 21.5957C67.6139 21.5957 67.2414 23.0205 66.8818 24.4585C66.6865 25.2334 66.4476 26.1602 66.0006 26.6102C65.8207 26.7647 65.5664 26.8126 65.4327 26.8419H64.2535C63.2079 26.8419 62.581 25.4332 62.581 24.4585V20.5119L60.6105 20.8981C61.2092 21.1138 61.2682 21.1777 61.2682 21.5186V25.4039C61.2682 26.3013 60.9393 26.8446 60.148 26.8446H58.9841C58.3573 26.7993 57.9976 26.3652 57.9976 25.545V17.556L55.6084 17.6652V18.1764C56.4587 18.1764 56.6849 18.315 56.6849 18.6878V25.4837C56.6849 26.9537 57.6251 27.4198 58.8943 27.4198H60.4179C61.3426 27.4198 62.2701 27.1402 62.6272 26.2108C63.0897 26.9378 63.732 27.4198 64.495 27.4198H65.4199C66.2112 27.4198 66.6454 27.1561 66.9871 26.7699C67.4341 27.3586 68.061 28.0855 69.42 28.0855C70.8691 28.0855 71.794 27.3266 72.2282 26.3839C72.7369 27.0656 73.305 27.4198 74.2887 27.4198H75.3781C76.6469 27.4198 77.559 26.7087 77.559 25.4065V17.5107L75.5731 17.8968C76.2441 18.1152 76.259 18.2217 76.259 18.5785M69.4689 27.5396C68.544 27.5396 67.8709 26.7513 67.483 26.2561C67.4676 26.2241 67.4393 26.1788 67.4084 26.1629C67.6936 25.6062 67.8272 25.0337 67.9608 24.5064L67.9916 24.4132C68.2896 23.2042 68.5903 22.0911 69.546 22.0911H69.6051C70.6943 22.1364 71.2185 23.5158 71.2185 24.9858C71.2185 26.4557 70.4118 27.5396 69.4715 27.5396" fill="white"></path><path d="M79.5023 18.4916V26.5749H80.4858V17.5107L79.0225 17.8645C79.4911 18.0622 79.5023 18.1623 79.5023 18.4891" fill="white"></path><path d="M81.9492 24.6745C81.9492 26.0643 83.3162 26.9037 84.3827 26.9336H84.4619C85.6214 26.9336 86.0991 26.3831 86.4327 25.9049C86.1323 28.6124 84.3495 29.1928 83.015 29.4668L82.6353 29.5241C83.2068 29.5664 83.7154 29.5963 83.9397 29.5963C85.6402 29.5963 87.8027 28.9886 87.8027 24.0791V20.5322H86.5943C83.8929 20.5322 81.9515 22.1537 81.9515 24.6719M86.4003 24.3107C86.4003 25.4367 85.6727 26.4752 84.7239 26.4828C83.8219 26.4479 83.3328 25.4391 83.3328 24.5873C83.3328 22.4302 84.8251 20.9806 86.2252 20.9806H86.4003V24.3107Z" fill="white"></path><path d="M94.387 19.0214C94.804 19.0214 95.1186 18.68 95.1186 18.2648C95.1186 17.8496 94.8022 17.5107 94.387 17.5107C93.9422 17.5107 93.6553 17.8521 93.6553 18.2648C93.6553 18.6776 93.9422 19.0214 94.387 19.0214Z" fill="white"></path><path d="M97.3142 19.0214C97.7435 19.0214 98.0454 18.68 98.0454 18.2648C98.0454 17.8496 97.7435 17.5107 97.3142 17.5107C96.8839 17.5107 96.582 17.8521 96.582 18.2648C96.582 18.6776 96.8839 19.0214 97.3142 19.0214Z" fill="white"></path><path d="M103.899 18.4782H103.136C102.534 18.4782 102.129 17.6942 102.129 17.1804C102.129 16.8398 102.324 16.4462 102.601 16.4462C102.682 16.4462 102.814 16.4639 102.878 16.5638C102.749 16.6841 102.634 16.872 102.634 16.9749C102.634 17.2303 102.862 17.4006 103.172 17.4006C103.482 17.4006 103.709 17.2978 103.709 16.9043C103.709 16.3935 103.236 16 102.634 16C101.773 16 101.284 16.6313 101.284 17.383C101.284 17.8088 101.608 18.2198 101.901 18.4752H101.169L100.973 19.0214H103.899V18.4752V18.4782Z" fill="white"></path><path d="M108.29 28.0854C107.429 28.0854 106.825 28.4144 106.825 28.8331C106.825 29.2518 107.429 29.5961 108.29 29.5961C109.149 29.5961 109.752 29.2518 109.752 28.8331C109.752 28.4144 109.149 28.0854 108.29 28.0854Z" fill="white"></path><path d="M106.094 28.0854C105.649 28.0854 105.362 28.4144 105.362 28.8331C105.362 29.2518 105.649 29.5961 106.094 29.5961C106.512 29.5961 106.826 29.2518 106.826 28.8331C106.826 28.4144 106.508 28.0854 106.094 28.0854Z" fill="white"></path><path d="M113.411 28.0854C113.016 28.0854 112.68 28.4206 112.68 28.8407C112.68 29.261 113.016 29.5961 113.411 29.5961C113.806 29.5961 114.143 29.276 114.143 28.8407C114.143 28.4056 113.806 28.0854 113.411 28.0854Z" fill="white"></path><path d="M117.21 18.4843V24.6816C117.21 25.5184 116.864 26.043 116.026 26.043H115.547C114.497 26.043 113.868 24.7524 113.868 23.8593V20.2434L111.889 20.5972C112.491 20.7949 112.551 20.8534 112.551 21.1657V24.7255C112.551 25.5478 112.22 26.0454 111.425 26.0454H110.167C109.118 26.0454 108.488 24.7547 108.488 23.8617V20.2459L106.51 20.5997C107.111 20.7973 107.171 20.8558 107.171 21.1681V24.7279C107.171 25.5501 106.841 26.0479 106.046 26.0479H105.206C104.156 26.0479 103.527 24.7572 103.527 23.8643V20.2483L101.548 20.6021C102.149 20.7997 102.21 20.8583 102.21 21.1706V24.7304C102.21 25.5526 101.878 26.0503 101.084 26.0503H98.9854C98.2816 25.9942 98.2065 25.2989 98.2065 24.9158V21.2414C98.2065 20.9436 98.2219 20.5753 98.3123 20.2068H97.5615C97.4556 20.3069 97.4873 20.363 97.4556 20.4191C97.3968 20.5899 97.3218 20.7729 97.291 20.7729C97.291 20.7729 97.2005 20.7168 97.0359 20.6167C96.6903 20.4044 96.1204 20.0482 95.2664 20.0482C93.3784 20.0482 92.1924 21.6513 92.1924 23.2835C92.1924 25.0427 93.3766 26.5749 94.9516 26.5749C96.2262 26.5749 96.902 25.7088 97.1264 25.0988C97.1264 26.3895 97.9668 26.5603 98.9854 26.5749H101.353C102.281 26.5749 103.212 26.3187 103.57 25.4672C104.017 26.1064 104.63 26.5334 105.355 26.5675V26.5749H106.314C107.243 26.5749 108.173 26.3187 108.532 25.4672C108.996 26.1333 109.64 26.5749 110.407 26.5749H111.696C112.625 26.5749 113.556 26.3187 113.914 25.4672C114.36 26.1064 114.974 26.5334 115.698 26.5675V26.5749H116.343C117.618 26.5749 118.533 25.9235 118.533 24.7304V17.5107L116.555 17.8646C117.215 18.0622 117.215 18.1622 117.215 18.4892M96.7627 24.8108C96.522 25.5623 95.8779 26.087 95.1425 26.087C94.5137 26.087 93.5548 25.4501 93.5548 23.364C93.5548 21.9026 94.0931 20.5411 95.2637 20.5411C96.7627 20.5411 96.9273 21.8879 96.9273 23.0932C96.9273 23.8446 96.8966 24.3839 96.7627 24.8084" fill="white"></path><path d="M120.958 18.4916V26.5749H122.924V17.5107L119.997 17.8645C120.934 18.0622 120.958 18.1623 120.958 18.4891" fill="white"></path><path d="M130.973 19.0214C131.39 19.0214 131.704 18.6801 131.704 18.2648C131.704 17.8496 131.387 17.5107 130.973 17.5107C130.558 17.5107 130.24 17.8369 130.24 18.2648C130.24 18.6928 130.542 19.0214 130.973 19.0214Z" fill="white"></path><path d="M130.24 20.5322C128.397 20.5322 127.313 22.0169 127.313 23.5671C127.313 25.1174 128.394 26.575 130.24 26.575C132.087 26.575 133.167 25.0903 133.167 23.5671C133.167 22.044 132.073 20.5322 130.24 20.5322ZM130.24 26.1298C129.131 26.1298 128.633 25.2101 128.633 23.5671C128.633 21.9243 129.131 20.991 130.24 20.991C131.35 20.991 131.836 21.8972 131.836 23.5671C131.836 25.2372 131.337 26.1298 130.24 26.1298Z" fill="white"></path><path d="M129.502 19.0214C129.936 19.0214 130.241 18.6801 130.241 18.2648C130.241 17.8496 129.936 17.5107 129.502 17.5107C129.069 17.5107 128.777 17.8369 128.777 18.2648C128.777 18.6928 129.066 19.0214 129.502 19.0214Z" fill="white"></path><path d="M136.322 21.5482V25.2261C136.211 27.9478 135.2 28.9763 133.167 29.539C133.686 29.5814 133.994 29.5963 134.177 29.5963C137.318 29.5963 137.557 26.7301 137.557 24.1379V20.5322L135.693 20.8932C136.31 21.0975 136.324 21.1971 136.324 21.5457" fill="white"></path><path d="M141.945 26.5749V17.5107L139.021 17.8645C139.958 18.0622 139.981 18.1623 139.981 18.4891V26.5724H141.947L141.945 26.5749Z" fill="white"></path><path d="M145.102 21.5311V25.21C144.99 27.9324 143.981 28.9587 141.947 29.5241C142.466 29.5664 142.775 29.5963 142.958 29.5963C146.098 29.5963 146.337 26.7145 146.337 24.124V20.5322L144.473 20.8934C145.09 21.0828 145.105 21.1973 145.105 21.5311" fill="white"></path><path d="M145.613 17.5107C145.214 17.5107 144.874 17.8309 144.874 18.2661C144.874 18.7013 145.214 19.0214 145.613 19.0214C146.012 19.0214 146.337 18.6863 146.337 18.2661C146.337 17.8459 145.998 17.5107 145.613 17.5107Z" fill="white"></path><path d="M152.444 20.5347C149.742 20.5347 147.801 22.1562 147.801 24.6745C147.801 26.0643 149.168 26.9038 150.234 26.9337H150.314C151.473 26.9337 151.952 26.3832 152.285 25.9049C151.983 28.6125 150.201 29.1928 148.867 29.4667L148.487 29.5241C149.058 29.5664 149.567 29.5963 149.791 29.5963C151.491 29.5963 153.654 28.9885 153.654 24.0791V20.5322H152.446L152.444 20.5347ZM152.252 24.3133C152.252 25.4392 151.525 26.4778 150.576 26.4852C149.674 26.4504 149.185 25.4416 149.185 24.5897C149.185 22.4327 150.677 20.983 152.077 20.983H152.252V24.3133Z" fill="white"></path><path d="M5.7297 35.5123V40.4468H4.9203V37.0672L3.4151 40.4468H2.8542L1.3419 37.0672V40.4468H0.5325V35.5123H1.4058L3.1382 39.3818L4.8635 35.5123H5.7297ZM7.20533 36.0164C7.0586 36.0164 6.93553 35.9667 6.83613 35.8673C6.73673 35.7679 6.68703 35.6448 6.68703 35.4981C6.68703 35.3513 6.73673 35.2283 6.83613 35.1289C6.93553 35.0295 7.0586 34.9798 7.20533 34.9798C7.34733 34.9798 7.46803 35.0295 7.56744 35.1289C7.66684 35.2283 7.71654 35.3513 7.71654 35.4981C7.71654 35.6448 7.66684 35.7679 7.56744 35.8673C7.46803 35.9667 7.34733 36.0164 7.20533 36.0164ZM7.60294 36.5347V40.4468H6.79353V36.5347H7.60294ZM10.6394 36.4708C10.9471 36.4708 11.2216 36.5347 11.463 36.6625C11.7091 36.7903 11.9008 36.9796 12.0381 37.2305C12.1754 37.4813 12.244 37.7843 12.244 38.1393V40.4468H11.4417V38.26C11.4417 37.9097 11.3541 37.6423 11.179 37.4577C11.0039 37.2683 10.7648 37.1737 10.4619 37.1737C10.159 37.1737 9.91757 37.2683 9.73771 37.4577C9.56257 37.6423 9.47501 37.9097 9.47501 38.26V40.4468H8.66561V36.5347H9.47501V36.982C9.60754 36.821 9.77557 36.6956 9.97911 36.6057C10.1874 36.5157 10.4075 36.4708 10.6394 36.4708ZM13.6882 36.0164C13.5415 36.0164 13.4184 35.9667 13.319 35.8673C13.2196 35.7679 13.1699 35.6448 13.1699 35.4981C13.1699 35.3513 13.2196 35.2283 13.319 35.1289C13.4184 35.0295 13.5415 34.9798 13.6882 34.9798C13.8302 34.9798 13.9509 35.0295 14.0503 35.1289C14.1497 35.2283 14.1994 35.3513 14.1994 35.4981C14.1994 35.6448 14.1497 35.7679 14.0503 35.8673C13.9509 35.9667 13.8302 36.0164 13.6882 36.0164ZM14.0858 36.5347V40.4468H13.2764V36.5347H14.0858ZM16.5685 40.5107C16.2608 40.5107 15.9839 40.4562 15.7378 40.3474C15.4964 40.2338 15.3047 40.0823 15.1627 39.893C15.0207 39.6989 14.945 39.4835 14.9355 39.2469H15.7733C15.7875 39.4125 15.8656 39.5522 16.0076 39.6658C16.1543 39.7746 16.3366 39.8291 16.5543 39.8291C16.7815 39.8291 16.9566 39.7865 17.0797 39.7013C17.2075 39.6113 17.2714 39.4977 17.2714 39.3605C17.2714 39.2137 17.2004 39.1049 17.0584 39.0339C16.9211 38.9629 16.701 38.8848 16.3981 38.7996C16.1046 38.7191 15.8656 38.641 15.681 38.5653C15.4964 38.4895 15.3355 38.3736 15.1982 38.2174C15.0657 38.0612 14.9994 37.8553 14.9994 37.5997C14.9994 37.3914 15.0609 37.2021 15.184 37.0317C15.3071 36.8565 15.4822 36.7193 15.7094 36.6199C15.9413 36.5205 16.2064 36.4708 16.5046 36.4708C16.9495 36.4708 17.3069 36.5844 17.5767 36.8116C17.8512 37.034 17.998 37.3393 18.0169 37.7275H17.2075C17.1933 37.5523 17.1223 37.4127 16.9945 37.3086C16.8667 37.2044 16.6939 37.1524 16.4762 37.1524C16.2632 37.1524 16.0999 37.1926 15.9863 37.2731C15.8727 37.3535 15.8159 37.46 15.8159 37.5926C15.8159 37.6967 15.8538 37.7843 15.9295 37.8553C16.0052 37.9263 16.0975 37.9831 16.2064 38.0257C16.3153 38.0635 16.4762 38.1132 16.6892 38.1748C16.9732 38.2505 17.2051 38.3286 17.385 38.4091C17.5696 38.4848 17.7282 38.5984 17.8607 38.7499C17.9932 38.9013 18.0619 39.1025 18.0666 39.3534C18.0666 39.5758 18.0051 39.7746 17.882 39.9498C17.7589 40.1249 17.5838 40.2622 17.3566 40.3616C17.1341 40.461 16.8714 40.5107 16.5685 40.5107ZM19.8855 37.195V39.3605C19.8855 39.5072 19.9186 39.6137 19.9849 39.68C20.0559 39.7415 20.1742 39.7723 20.3399 39.7723H20.8369V40.4468H20.1979C19.8334 40.4468 19.5542 40.3616 19.3601 40.1912C19.166 40.0208 19.069 39.7439 19.069 39.3605V37.195H18.6075V36.5347H19.069V35.562H19.8855V36.5347H20.8369V37.195H19.8855ZM22.3923 37.1027C22.5106 36.9039 22.6668 36.75 22.8609 36.6412C23.0597 36.5276 23.294 36.4708 23.5638 36.4708V37.3086H23.3579C23.0408 37.3086 22.7994 37.389 22.6337 37.55C22.4728 37.7109 22.3923 37.9902 22.3923 38.3878V40.4468H21.5829V36.5347H22.3923V37.1027ZM27.8294 36.5347L25.4296 42.2857H24.5918L25.387 40.3829L23.8463 36.5347H24.748L25.8485 39.5167L26.9916 36.5347H27.8294ZM31.9815 40.5107C31.6123 40.5107 31.2786 40.4278 30.9804 40.2622C30.6822 40.0918 30.4479 39.8551 30.2775 39.5522C30.1071 39.2445 30.0219 38.8895 30.0219 38.4872C30.0219 38.0896 30.1094 37.7369 30.2846 37.4293C30.4597 37.1216 30.6987 36.8849 31.0017 36.7193C31.3046 36.5536 31.643 36.4708 32.017 36.4708C32.3909 36.4708 32.7293 36.5536 33.0323 36.7193C33.3352 36.8849 33.5742 37.1216 33.7494 37.4293C33.9245 37.7369 34.0121 38.0896 34.0121 38.4872C34.0121 38.8848 33.9221 39.2374 33.7423 39.5451C33.5624 39.8527 33.3163 40.0918 33.0039 40.2622C32.6962 40.4278 32.3554 40.5107 31.9815 40.5107ZM31.9815 39.8078C32.1897 39.8078 32.3838 39.7581 32.5637 39.6587C32.7483 39.5593 32.8974 39.4102 33.011 39.2114C33.1246 39.0126 33.1814 38.7712 33.1814 38.4872C33.1814 38.2032 33.1269 37.9641 33.0181 37.7701C32.9092 37.5713 32.7648 37.4222 32.585 37.3228C32.4051 37.2234 32.211 37.1737 32.0028 37.1737C31.7945 37.1737 31.6004 37.2234 31.4206 37.3228C31.2454 37.4222 31.1058 37.5713 31.0017 37.7701C30.8975 37.9641 30.8455 38.2032 30.8455 38.4872C30.8455 38.9084 30.952 39.235 31.165 39.467C31.3827 39.6942 31.6549 39.8078 31.9815 39.8078ZM36.4523 37.195H35.7281V40.4468H34.9116V37.195H34.4501V36.5347H34.9116V36.2578C34.9116 35.8081 35.0299 35.4815 35.2666 35.278C35.508 35.0697 35.8843 34.9656 36.3955 34.9656V35.6401C36.1494 35.6401 35.9766 35.6874 35.8772 35.7821C35.7778 35.872 35.7281 36.0306 35.7281 36.2578V36.5347H36.4523V37.195ZM39.8233 36.1655V37.6139H41.5273V38.2742H39.8233V39.7865H41.7403V40.4468H39.0139V35.5052H41.7403V36.1655H39.8233ZM44.7111 36.4708C45.0188 36.4708 45.2933 36.5347 45.5347 36.6625C45.7808 36.7903 45.9725 36.9796 46.1098 37.2305C46.2471 37.4813 46.3157 37.7843 46.3157 38.1393V40.4468H45.5134V38.26C45.5134 37.9097 45.4258 37.6423 45.2507 37.4577C45.0756 37.2683 44.8365 37.1737 44.5336 37.1737C44.2307 37.1737 43.9893 37.2683 43.8094 37.4577C43.6343 37.6423 43.5467 37.9097 43.5467 38.26V40.4468H42.7373V36.5347H43.5467V36.982C43.6792 36.821 43.8473 36.6956 44.0508 36.6057C44.2591 36.5157 44.4792 36.4708 44.7111 36.4708ZM48.8604 39.7226L49.968 36.5347H50.8271L49.3361 40.4468H48.3705L46.8866 36.5347H47.7528L48.8604 39.7226ZM51.8507 36.0164C51.704 36.0164 51.5809 35.9667 51.4815 35.8673C51.3821 35.7679 51.3324 35.6448 51.3324 35.4981C51.3324 35.3513 51.3821 35.2283 51.4815 35.1289C51.5809 35.0295 51.704 34.9798 51.8507 34.9798C51.9927 34.9798 52.1134 35.0295 52.2128 35.1289C52.3122 35.2283 52.3619 35.3513 52.3619 35.4981C52.3619 35.6448 52.3122 35.7679 52.2128 35.8673C52.1134 35.9667 51.9927 36.0164 51.8507 36.0164ZM52.2483 36.5347V40.4468H51.4389V36.5347H52.2483ZM54.1204 37.1027C54.2387 36.9039 54.3949 36.75 54.589 36.6412C54.7878 36.5276 55.0221 36.4708 55.2919 36.4708V37.3086H55.086C54.7689 37.3086 54.5275 37.389 54.3618 37.55C54.2009 37.7109 54.1204 37.9902 54.1204 38.3878V40.4468H53.311V36.5347H54.1204V37.1027ZM57.7328 40.5107C57.3636 40.5107 57.0299 40.4278 56.7317 40.2622C56.4335 40.0918 56.1992 39.8551 56.0288 39.5522C55.8584 39.2445 55.7732 38.8895 55.7732 38.4872C55.7732 38.0896 55.8608 37.7369 56.0359 37.4293C56.2111 37.1216 56.4501 36.8849 56.753 36.7193C57.056 36.5536 57.3944 36.4708 57.7683 36.4708C58.1423 36.4708 58.4807 36.5536 58.7836 36.7193C59.0866 36.8849 59.3256 37.1216 59.5007 37.4293C59.6759 37.7369 59.7634 38.0896 59.7634 38.4872C59.7634 38.8848 59.6735 39.2374 59.4936 39.5451C59.3138 39.8527 59.0676 40.0918 58.7552 40.2622C58.4476 40.4278 58.1068 40.5107 57.7328 40.5107ZM57.7328 39.8078C57.9411 39.8078 58.1352 39.7581 58.315 39.6587C58.4996 39.5593 58.6487 39.4102 58.7623 39.2114C58.8759 39.0126 58.9327 38.7712 58.9327 38.4872C58.9327 38.2032 58.8783 37.9641 58.7694 37.7701C58.6606 37.5713 58.5162 37.4222 58.3363 37.3228C58.1565 37.2234 57.9624 37.1737 57.7541 37.1737C57.5459 37.1737 57.3518 37.2234 57.1719 37.3228C56.9968 37.4222 56.8572 37.5713 56.753 37.7701C56.6489 37.9641 56.5968 38.2032 56.5968 38.4872C56.5968 38.9084 56.7033 39.235 56.9163 39.467C57.1341 39.6942 57.4062 39.8078 57.7328 39.8078ZM62.5374 36.4708C62.845 36.4708 63.1196 36.5347 63.361 36.6625C63.6071 36.7903 63.7988 36.9796 63.9361 37.2305C64.0733 37.4813 64.142 37.7843 64.142 38.1393V40.4468H63.3397V38.26C63.3397 37.9097 63.2521 37.6423 63.077 37.4577C62.9018 37.2683 62.6628 37.1737 62.3599 37.1737C62.0569 37.1737 61.8155 37.2683 61.6357 37.4577C61.4605 37.6423 61.373 37.9097 61.373 38.26V40.4468H60.5636V36.5347H61.373V36.982C61.5055 36.821 61.6735 36.6956 61.8771 36.6057C62.0853 36.5157 62.3054 36.4708 62.5374 36.4708ZM69.9101 36.4708C70.2178 36.4708 70.4923 36.5347 70.7337 36.6625C70.9798 36.7903 71.1715 36.9796 71.3088 37.2305C71.4508 37.4813 71.5218 37.7843 71.5218 38.1393V40.4468H70.7195V38.26C70.7195 37.9097 70.6319 37.6423 70.4568 37.4577C70.2817 37.2683 70.0426 37.1737 69.7397 37.1737C69.4368 37.1737 69.1954 37.2683 69.0155 37.4577C68.8404 37.6423 68.7528 37.9097 68.7528 38.26V40.4468H67.9505V38.26C67.9505 37.9097 67.8629 37.6423 67.6878 37.4577C67.5127 37.2683 67.2736 37.1737 66.9707 37.1737C66.6678 37.1737 66.4264 37.2683 66.2465 37.4577C66.0714 37.6423 65.9838 37.9097 65.9838 38.26V40.4468H65.1744V36.5347H65.9838V36.982C66.1163 36.821 66.2844 36.6956 66.4879 36.6057C66.6914 36.5157 66.9092 36.4708 67.1411 36.4708C67.4535 36.4708 67.7328 36.537 67.9789 36.6696C68.225 36.8021 68.4144 36.9938 68.5469 37.2447C68.6652 37.008 68.8498 36.821 69.1007 36.6838C69.3516 36.5418 69.6214 36.4708 69.9101 36.4708ZM76.1372 38.3949C76.1372 38.5416 76.1278 38.6741 76.1088 38.7925H73.1197C73.1434 39.1049 73.2594 39.3557 73.4676 39.5451C73.6759 39.7344 73.9315 39.8291 74.2344 39.8291C74.6699 39.8291 74.9776 39.6468 75.1574 39.2824H76.0307C75.9124 39.6421 75.697 39.9379 75.3846 40.1699C75.077 40.3971 74.6936 40.5107 74.2344 40.5107C73.8605 40.5107 73.5244 40.4278 73.2262 40.2622C72.9328 40.0918 72.7008 39.8551 72.5304 39.5522C72.3648 39.2445 72.2819 38.8895 72.2819 38.4872C72.2819 38.0848 72.3624 37.7322 72.5233 37.4293C72.689 37.1216 72.9186 36.8849 73.212 36.7193C73.5102 36.5536 73.851 36.4708 74.2344 36.4708C74.6036 36.4708 74.9326 36.5512 75.2213 36.7122C75.5101 36.8731 75.7349 37.1003 75.8958 37.3938C76.0568 37.6825 76.1372 38.0162 76.1372 38.3949ZM75.2923 38.1393C75.2876 37.8411 75.1811 37.602 74.9728 37.4222C74.7646 37.2423 74.5066 37.1524 74.1989 37.1524C73.9197 37.1524 73.6806 37.2423 73.4818 37.4222C73.283 37.5973 73.1647 37.8363 73.1268 38.1393H75.2923ZM78.9076 36.4708C79.2152 36.4708 79.4898 36.5347 79.7312 36.6625C79.9773 36.7903 80.169 36.9796 80.3063 37.2305C80.4435 37.4813 80.5122 37.7843 80.5122 38.1393V40.4468H79.7099V38.26C79.7099 37.9097 79.6223 37.6423 79.4472 37.4577C79.272 37.2683 79.033 37.1737 78.7301 37.1737C78.4271 37.1737 78.1857 37.2683 78.0059 37.4577C77.8307 37.6423 77.7432 37.9097 77.7432 38.26V40.4468H76.9338V36.5347H77.7432V36.982C77.8757 36.821 78.0437 36.6956 78.2473 36.6057C78.4555 36.5157 78.6756 36.4708 78.9076 36.4708ZM82.4889 37.195V39.3605C82.4889 39.5072 82.522 39.6137 82.5883 39.68C82.6593 39.7415 82.7776 39.7723 82.9433 39.7723H83.4403V40.4468H82.8013C82.4368 40.4468 82.1576 40.3616 81.9635 40.1912C81.7694 40.0208 81.6724 39.7439 81.6724 39.3605V37.195H81.2109V36.5347H81.6724V35.562H82.4889V36.5347H83.4403V37.195H82.4889ZM92.4561 35.5123L90.9935 40.4468H90.0776L89.041 36.7122L87.9405 40.4468L87.0317 40.4539L85.633 35.5123H86.4921L87.5145 39.5309L88.6221 35.5123H89.5309L90.5604 39.5096L91.5899 35.5123H92.4561ZM92.8539 38.473C92.8539 38.0801 92.9344 37.7322 93.0953 37.4293C93.261 37.1263 93.4834 36.892 93.7627 36.7264C94.0467 36.556 94.3591 36.4708 94.6999 36.4708C95.0076 36.4708 95.275 36.5323 95.5022 36.6554C95.7341 36.7737 95.9187 36.9228 96.056 37.1027V36.5347H96.8725V40.4468H96.056V39.8646C95.9187 40.0492 95.7318 40.203 95.4951 40.3261C95.2584 40.4491 94.9886 40.5107 94.6857 40.5107C94.3496 40.5107 94.042 40.4255 93.7627 40.2551C93.4834 40.0799 93.261 39.8385 93.0953 39.5309C92.9344 39.2185 92.8539 38.8658 92.8539 38.473ZM96.056 38.4872C96.056 38.2174 95.9992 37.9831 95.8856 37.7843C95.7767 37.5855 95.6324 37.434 95.4525 37.3299C95.2726 37.2257 95.0786 37.1737 94.8703 37.1737C94.662 37.1737 94.468 37.2257 94.2881 37.3299C94.1082 37.4293 93.9615 37.5784 93.8479 37.7772C93.739 37.9712 93.6846 38.2032 93.6846 38.473C93.6846 38.7428 93.739 38.9794 93.8479 39.183C93.9615 39.3865 94.1082 39.5427 94.2881 39.6516C94.4727 39.7557 94.6668 39.8078 94.8703 39.8078C95.0786 39.8078 95.2726 39.7557 95.4525 39.6516C95.6324 39.5474 95.7767 39.396 95.8856 39.1972C95.9992 38.9936 96.056 38.757 96.056 38.4872ZM98.8799 37.195V39.3605C98.8799 39.5072 98.9131 39.6137 98.9793 39.68C99.0503 39.7415 99.1687 39.7723 99.3343 39.7723H99.8313V40.4468H99.1923C98.8279 40.4468 98.5486 40.3616 98.3545 40.1912C98.1605 40.0208 98.0634 39.7439 98.0634 39.3605V37.195H97.6019V36.5347H98.0634V35.562H98.8799V36.5347H99.8313V37.195H98.8799ZM104.163 38.3949C104.163 38.5416 104.153 38.6741 104.134 38.7925H101.145C101.169 39.1049 101.285 39.3557 101.493 39.5451C101.701 39.7344 101.957 39.8291 102.26 39.8291C102.695 39.8291 103.003 39.6468 103.183 39.2824H104.056C103.938 39.6421 103.723 39.9379 103.41 40.1699C103.103 40.3971 102.719 40.5107 102.26 40.5107C101.886 40.5107 101.55 40.4278 101.252 40.2622C100.958 40.0918 100.726 39.8551 100.556 39.5522C100.39 39.2445 100.308 38.8895 100.308 38.4872C100.308 38.0848 100.388 37.7322 100.549 37.4293C100.715 37.1216 100.944 36.8849 101.238 36.7193C101.536 36.5536 101.877 36.4708 102.26 36.4708C102.629 36.4708 102.958 36.5512 103.247 36.7122C103.536 36.8731 103.76 37.1003 103.921 37.3938C104.082 37.6825 104.163 38.0162 104.163 38.3949ZM103.318 38.1393C103.313 37.8411 103.207 37.602 102.998 37.4222C102.79 37.2423 102.532 37.1524 102.225 37.1524C101.945 37.1524 101.706 37.2423 101.507 37.4222C101.309 37.5973 101.19 37.8363 101.152 38.1393H103.318ZM105.769 37.1027C105.887 36.9039 106.043 36.75 106.237 36.6412C106.436 36.5276 106.67 36.4708 106.94 36.4708V37.3086H106.734C106.417 37.3086 106.176 37.389 106.01 37.55C105.849 37.7109 105.769 37.9902 105.769 38.3878V40.4468H104.959V36.5347H105.769V37.1027ZM113.341 40.4468L112.731 39.8362C112.494 40.0728 112.236 40.2503 111.957 40.3687C111.678 40.4823 111.365 40.5391 111.02 40.5391C110.669 40.5391 110.359 40.4775 110.089 40.3545C109.82 40.2314 109.611 40.0563 109.465 39.8291C109.318 39.5971 109.245 39.3297 109.245 39.0268C109.245 38.686 109.342 38.383 109.536 38.118C109.73 37.8482 110.018 37.6352 110.402 37.479C110.265 37.3133 110.168 37.1595 110.111 37.0175C110.054 36.8707 110.026 36.7098 110.026 36.5347C110.026 36.3169 110.08 36.1229 110.189 35.9525C110.302 35.7821 110.463 35.6472 110.672 35.5478C110.88 35.4484 111.121 35.3987 111.396 35.3987C111.675 35.3987 111.912 35.4531 112.106 35.562C112.305 35.6661 112.451 35.8105 112.546 35.9951C112.645 36.1797 112.686 36.3856 112.667 36.6128H111.857C111.862 36.4376 111.82 36.3027 111.73 36.2081C111.64 36.1087 111.517 36.059 111.36 36.059C111.204 36.059 111.076 36.1063 110.977 36.201C110.882 36.2909 110.835 36.4021 110.835 36.5347C110.835 36.6625 110.87 36.7903 110.941 36.9181C111.017 37.0411 111.147 37.2021 111.332 37.4009L112.638 38.7002L113.142 37.8695H114.016L113.377 38.9629L113.199 39.254L114.399 40.4468H113.341ZM111.02 39.8504C111.465 39.8504 111.857 39.6681 112.198 39.3037L110.892 37.9902C110.333 38.2126 110.054 38.5487 110.054 38.9984C110.054 39.2398 110.144 39.4433 110.324 39.609C110.504 39.7699 110.736 39.8504 111.02 39.8504ZM119.749 39.4386H117.683L117.328 40.4468H116.483L118.251 35.5052H119.188L120.956 40.4468H120.104L119.749 39.4386ZM119.522 38.7783L118.72 36.485L117.91 38.7783H119.522ZM123.301 36.4708C123.604 36.4708 123.871 36.5323 124.103 36.6554C124.34 36.7737 124.525 36.9228 124.657 37.1027V36.5347H125.474V40.5107C125.474 40.8704 125.398 41.1899 125.246 41.4692C125.095 41.7532 124.875 41.9756 124.586 42.1366C124.302 42.2975 123.961 42.378 123.564 42.378C123.034 42.378 122.593 42.2525 122.243 42.0017C121.893 41.7555 121.694 41.4195 121.647 40.9935H122.449C122.511 41.197 122.641 41.3603 122.839 41.4834C123.043 41.6112 123.284 41.6751 123.564 41.6751C123.89 41.6751 124.153 41.5757 124.352 41.3769C124.555 41.1781 124.657 40.8893 124.657 40.5107V39.8575C124.52 40.0421 124.333 40.1983 124.096 40.3261C123.864 40.4491 123.599 40.5107 123.301 40.5107C122.96 40.5107 122.648 40.4255 122.364 40.2551C122.085 40.0799 121.862 39.8385 121.696 39.5309C121.535 39.2185 121.455 38.8658 121.455 38.473C121.455 38.0801 121.535 37.7322 121.696 37.4293C121.862 37.1263 122.085 36.892 122.364 36.7264C122.648 36.556 122.96 36.4708 123.301 36.4708ZM124.657 38.4872C124.657 38.2174 124.6 37.9831 124.487 37.7843C124.378 37.5855 124.233 37.434 124.054 37.3299C123.874 37.2257 123.68 37.1737 123.471 37.1737C123.263 37.1737 123.069 37.2257 122.889 37.3299C122.709 37.4293 122.563 37.5784 122.449 37.7772C122.34 37.9712 122.286 38.2032 122.286 38.473C122.286 38.7428 122.34 38.9794 122.449 39.183C122.563 39.3865 122.709 39.5427 122.889 39.6516C123.074 39.7557 123.268 39.8078 123.471 39.8078C123.68 39.8078 123.874 39.7557 124.054 39.6516C124.233 39.5474 124.378 39.396 124.487 39.1972C124.6 38.9936 124.657 38.757 124.657 38.4872ZM127.346 37.1027C127.464 36.9039 127.621 36.75 127.815 36.6412C128.013 36.5276 128.248 36.4708 128.518 36.4708V37.3086H128.312C127.995 37.3086 127.753 37.389 127.587 37.55C127.427 37.7109 127.346 37.9902 127.346 38.3878V40.4468H126.537V36.5347H127.346V37.1027ZM129.673 36.0164C129.527 36.0164 129.404 35.9667 129.304 35.8673C129.205 35.7679 129.155 35.6448 129.155 35.4981C129.155 35.3513 129.205 35.2283 129.304 35.1289C129.404 35.0295 129.527 34.9798 129.673 34.9798C129.815 34.9798 129.936 35.0295 130.035 35.1289C130.135 35.2283 130.185 35.3513 130.185 35.4981C130.185 35.6448 130.135 35.7679 130.035 35.8673C129.936 35.9667 129.815 36.0164 129.673 36.0164ZM130.071 36.5347V40.4468H129.262V36.5347H130.071ZM130.864 38.4872C130.864 38.0848 130.944 37.7322 131.105 37.4293C131.271 37.1216 131.498 36.8849 131.787 36.7193C132.076 36.5536 132.407 36.4708 132.781 36.4708C133.254 36.4708 133.645 36.5844 133.952 36.8116C134.265 37.034 134.475 37.3535 134.584 37.7701H133.711C133.64 37.576 133.526 37.4245 133.37 37.3157C133.214 37.2068 133.018 37.1524 132.781 37.1524C132.45 37.1524 132.184 37.2707 131.986 37.5074C131.792 37.7393 131.695 38.0659 131.695 38.4872C131.695 38.9084 131.792 39.2374 131.986 39.4741C132.184 39.7107 132.45 39.8291 132.781 39.8291C133.249 39.8291 133.559 39.6232 133.711 39.2114H134.584C134.471 39.609 134.258 39.9261 133.945 40.1628C133.633 40.3947 133.245 40.5107 132.781 40.5107C132.407 40.5107 132.076 40.4278 131.787 40.2622C131.498 40.0918 131.271 39.8551 131.105 39.5522C130.944 39.2445 130.864 38.8895 130.864 38.4872ZM138.934 36.5347V40.4468H138.124V39.9853C137.997 40.1462 137.829 40.274 137.62 40.3687C137.417 40.4586 137.199 40.5036 136.967 40.5036C136.659 40.5036 136.383 40.4397 136.136 40.3119C135.895 40.1841 135.703 39.9947 135.561 39.7439C135.424 39.493 135.355 39.1901 135.355 38.8351V36.5347H136.158V38.7144C136.158 39.0646 136.245 39.3344 136.42 39.5238C136.596 39.7084 136.835 39.8007 137.137 39.8007C137.44 39.8007 137.679 39.7084 137.855 39.5238C138.034 39.3344 138.124 39.0646 138.124 38.7144V36.5347H138.934ZM140.811 35.1928V40.4468H140.002V35.1928H140.811ZM142.818 37.195V39.3605C142.818 39.5072 142.851 39.6137 142.918 39.68C142.989 39.7415 143.107 39.7723 143.273 39.7723H143.77V40.4468H143.131C142.766 40.4468 142.487 40.3616 142.293 40.1912C142.099 40.0208 142.002 39.7439 142.002 39.3605V37.195H141.54V36.5347H142.002V35.562H142.818V36.5347H143.77V37.195H142.818ZM148.058 36.5347V40.4468H147.249V39.9853C147.121 40.1462 146.953 40.274 146.745 40.3687C146.541 40.4586 146.324 40.5036 146.092 40.5036C145.784 40.5036 145.507 40.4397 145.261 40.3119C145.02 40.1841 144.828 39.9947 144.686 39.7439C144.549 39.493 144.48 39.1901 144.48 38.8351V36.5347H145.282V38.7144C145.282 39.0646 145.37 39.3344 145.545 39.5238C145.72 39.7084 145.959 39.8007 146.262 39.8007C146.565 39.8007 146.804 39.7084 146.979 39.5238C147.159 39.3344 147.249 39.0646 147.249 38.7144V36.5347H148.058ZM149.936 37.1027C150.054 36.9039 150.21 36.75 150.404 36.6412C150.603 36.5276 150.837 36.4708 151.107 36.4708V37.3086H150.901C150.584 37.3086 150.343 37.389 150.177 37.55C150.016 37.7109 149.936 37.9902 149.936 38.3878V40.4468H149.126V36.5347H149.936V37.1027ZM155.437 38.3949C155.437 38.5416 155.427 38.6741 155.408 38.7925H152.419C152.443 39.1049 152.559 39.3557 152.767 39.5451C152.975 39.7344 153.231 39.8291 153.534 39.8291C153.969 39.8291 154.277 39.6468 154.457 39.2824H155.33C155.212 39.6421 154.997 39.9379 154.684 40.1699C154.376 40.3971 153.993 40.5107 153.534 40.5107C153.16 40.5107 152.824 40.4278 152.526 40.2622C152.232 40.0918 152 39.8551 151.83 39.5522C151.664 39.2445 151.581 38.8895 151.581 38.4872C151.581 38.0848 151.662 37.7322 151.823 37.4293C151.989 37.1216 152.218 36.8849 152.512 36.7193C152.81 36.5536 153.151 36.4708 153.534 36.4708C153.903 36.4708 154.232 36.5512 154.521 36.7122C154.81 36.8731 155.034 37.1003 155.195 37.3938C155.356 37.6825 155.437 38.0162 155.437 38.3949ZM154.592 38.1393C154.587 37.8411 154.481 37.602 154.272 37.4222C154.064 37.2423 153.806 37.1524 153.498 37.1524C153.219 37.1524 152.98 37.2423 152.781 37.4222C152.583 37.5973 152.464 37.8363 152.426 38.1393H154.592Z" fill="white"></path><path d="M192.404 54.9999C177.714 54.9999 165.761 42.6643 165.761 27.4999C165.761 12.3356 177.714 0 192.404 0C207.094 0 219.043 12.3356 219.043 27.4999C219.043 42.6643 207.094 54.9999 192.404 54.9999ZM192.404 1.58779C178.564 1.58779 167.308 13.2127 167.308 27.4999C167.308 41.7871 178.564 53.4121 192.404 53.4121C206.244 53.4121 217.497 41.7871 217.497 27.4999C217.497 13.2127 206.241 1.58779 192.404 1.58779Z" fill="white"></path><path d="M206.9 38.5077C206.965 38.5443 207.083 38.6147 207.051 38.7274C207.033 38.7978 206.971 38.8345 206.863 38.8345C206.822 38.8345 206.783 38.8288 206.768 38.8259C206.166 38.671 205.522 38.595 204.852 38.595C201.41 38.595 196.96 41.2036 193.396 43.8009C194.106 44.3897 194.867 45.063 195.601 45.7532C195.708 45.6602 195.744 45.6349 195.845 45.5504C196.162 45.2855 196.464 45.1024 196.767 44.9926C196.949 44.925 197.131 44.9108 197.308 44.9475C197.65 45.0179 197.874 45.3559 197.837 45.7532C197.806 46.094 197.573 46.356 197.294 46.3673C197.072 46.373 196.876 46.2631 196.764 46.0687C196.626 46.1814 196.498 46.2883 196.38 46.4011C196.324 46.4546 196.271 46.5081 196.218 46.5616L196.439 46.7561C196.613 46.9081 196.781 47.0575 196.952 47.2011C197.288 47.4828 197.655 47.7673 198.066 47.9504C198.196 48.0068 198.364 48.0744 198.523 48.0603C198.602 48.0547 198.686 48.0294 198.775 48.004L198.837 47.987C198.837 47.987 198.855 47.9815 198.862 47.9758C198.913 47.9533 198.964 47.9279 199.025 47.9166C199.047 47.9138 199.072 47.9082 199.101 47.9082C199.229 47.9082 199.339 47.973 199.403 48.0857C199.473 48.204 199.493 48.3899 199.457 48.5421C199.426 48.666 199.359 48.7533 199.294 48.8294C199.025 49.1336 198.7 49.3083 198.328 49.3477C198.26 49.3561 198.19 49.359 198.12 49.359C198.05 49.359 197.98 49.3561 197.907 49.3477C197.624 49.3195 197.327 49.2294 196.999 49.0773C196.51 48.8491 196.024 48.5392 195.473 48.0998L195.021 47.7363C194.872 47.8801 194.719 48.0237 194.562 48.1646C194.377 48.3307 194.147 48.5167 193.859 48.6152C193.78 48.6434 193.696 48.6575 193.606 48.6575C193.573 48.6575 193.542 48.6575 193.508 48.6518C193.47 48.6491 193.43 48.6434 193.391 48.6322C193.144 48.5843 192.948 48.3562 192.901 48.0687C192.853 47.7645 192.966 47.4631 193.184 47.3166C193.396 47.1758 193.659 47.2039 193.859 47.3927C193.886 47.418 193.909 47.4461 193.932 47.4743C194.049 47.356 194.165 47.2322 194.279 47.1025C193.534 46.4265 192.575 45.7306 191.707 45.0404C190.847 45.7306 189.942 46.4265 189.196 47.1025C189.311 47.2322 189.426 47.356 189.544 47.4743C189.567 47.4434 189.592 47.4152 189.617 47.3927C189.816 47.2068 190.082 47.1758 190.292 47.3166C190.508 47.4603 190.622 47.7617 190.575 48.0687C190.531 48.3562 190.331 48.5815 190.085 48.6322C190.046 48.6407 190.006 48.6463 189.968 48.6518C189.934 48.6547 189.9 48.6575 189.87 48.6575C189.779 48.6575 189.699 48.6434 189.617 48.6152C189.329 48.5167 189.099 48.3336 188.914 48.1646C188.757 48.0237 188.603 47.8801 188.454 47.7363L188.003 48.0998C187.454 48.5364 186.966 48.8491 186.476 49.0773C186.146 49.2294 185.849 49.3195 185.568 49.3477C185.496 49.3561 185.426 49.359 185.356 49.359C185.285 49.359 185.216 49.3561 185.148 49.3477C184.776 49.3083 184.447 49.1336 184.182 48.8294C184.117 48.7533 184.05 48.6688 184.019 48.5421C183.98 48.3899 184.002 48.2067 184.069 48.0857C184.134 47.9702 184.243 47.9082 184.373 47.9082C184.4 47.9082 184.425 47.9111 184.447 47.9166C184.509 47.9279 184.562 47.9533 184.61 47.9758C184.618 47.9787 184.627 47.9842 184.635 47.987L184.697 48.004C184.788 48.0294 184.874 48.0518 184.95 48.0603C185.109 48.0744 185.28 48.0068 185.406 47.9504C185.819 47.7673 186.188 47.4828 186.521 47.2011C186.692 47.0575 186.863 46.9081 187.034 46.7561L187.255 46.5616C187.202 46.5081 187.148 46.4546 187.093 46.4011C186.975 46.2883 186.847 46.1785 186.709 46.0687C186.594 46.2659 186.4 46.373 186.179 46.3673C185.902 46.356 185.666 46.094 185.636 45.7532C185.599 45.3559 185.823 45.0179 186.165 44.9475C186.341 44.9108 186.524 44.925 186.706 44.9926C187.009 45.1053 187.311 45.2855 187.628 45.5504C187.728 45.6349 187.764 45.6602 187.872 45.7532C188.628 45.0433 189.365 44.3982 190.085 43.8066C186.521 41.2064 182.069 38.595 178.623 38.595C177.954 38.595 177.309 38.6739 176.707 38.8259C176.693 38.8288 176.654 38.8345 176.611 38.8345C176.507 38.8345 176.443 38.7978 176.424 38.7274C176.393 38.6147 176.514 38.5443 176.575 38.5077C176.79 38.3809 177.987 37.9104 179.872 37.9104C182.529 37.9104 186.538 38.6795 191.631 42.4319L191.735 42.5136L191.758 42.4966C196.851 38.7415 200.924 37.9104 203.581 37.9104C205.466 37.9104 206.663 38.3809 206.877 38.5077M193.24 36.8963C192.931 37.4118 192.506 38.8204 192.506 38.8401C192.957 38.474 194.309 38.1978 194.89 38.0739C199.039 37.1752 199.297 33.3947 199.423 32.6538C199.314 32.8652 199.02 33.3102 196.481 33.4257C195.153 33.4877 192.948 33.6511 191.802 35.84C192 36.2428 192.158 36.6936 192.276 37.1893C193.7 33.7722 197.215 34.2399 197.812 34.113C197.217 34.3722 194.672 34.499 193.237 36.8963M191.676 40.8994L192.301 40.5895C192.15 33.8877 188.538 33.5074 186.792 33.4257C184.254 33.3102 183.96 32.8623 183.854 32.6538C183.978 33.3947 184.238 37.1752 188.388 38.0739C188.978 38.2035 189.858 38.3245 190.28 38.7021C189.797 34.3215 186.191 34.4314 185.465 34.113C186.149 34.2568 191.287 33.1665 191.049 40.5895L191.676 40.8994ZM189.569 21.5941C189.457 19.6757 191.64 16.267 191.64 16.267C191.64 16.267 193.732 19.7601 193.71 21.5941C193.693 22.9181 192.783 23.9915 191.64 23.9915C190.497 23.9915 189.649 22.9153 189.569 21.5941ZM192.539 23.166C192.444 23.1829 192.342 23.1942 192.245 23.1942C191.161 23.1942 190.283 22.1772 190.283 20.9236C190.283 20.7433 190.326 20.5124 190.393 20.2475C190.18 20.8109 190.026 21.3265 190.026 21.6448C190.026 22.6674 190.743 23.4985 191.626 23.4985C191.964 23.4985 192.281 23.3745 192.539 23.166ZM185.949 28.679C185.949 32.4988 191.351 33.7187 191.351 33.7187V32.5327C191.351 28.5691 185.949 27.493 185.949 27.493V28.679ZM191.909 32.5355V33.7215C191.909 33.7215 197.311 32.5018 197.311 28.6818V27.4958C197.311 27.4958 191.909 28.5719 191.909 32.5355ZM187.311 24.3801C187.311 27.4874 191.419 28.4789 191.419 28.4789V27.5155C191.419 24.2928 187.311 23.4168 187.311 23.4168V24.3801ZM191.841 27.5155V28.4789C191.841 28.4789 195.948 27.4874 195.948 24.3801V23.4168C195.948 23.4168 191.841 24.29 191.841 27.5127M177.27 17.7657C180.837 14.1627 183.129 13.5232 185.983 13.0725C183.061 14.9373 180.332 19.2729 181.182 22.3265C182.726 19.0869 185.418 15.9233 187.902 14.7684C186.499 16.7488 186.45 19.2165 187.805 21.3208C188.118 18.5883 190.023 15.9628 191.615 14.2022C193.206 15.96 195.111 18.5883 195.422 21.3208C196.775 19.2137 196.731 16.7488 195.324 14.7684C197.809 15.9205 200.502 19.0869 202.045 22.3265C202.897 19.2729 200.165 14.9373 197.247 13.0725C200.098 13.5204 202.39 14.1627 205.956 17.7657C204.779 12.9457 200.633 11.2752 197.318 10.6808C200.967 10.3653 201.689 10.74 204.912 12.0809C201.415 8.62436 198.964 8.00178 195.461 8.33706C196.06 7.81024 196.635 7.52572 197.518 7.29191C196.05 6.71158 193.75 7.01583 192.855 7.87785C192.855 7.87785 192.68 6.29467 191.626 5.6552V5.64111C191.626 5.64111 191.617 5.64674 191.615 5.64956C191.612 5.64674 191.606 5.64393 191.603 5.64111V5.6552C190.55 6.29467 190.374 7.87785 190.374 7.87785C189.479 7.01583 187.18 6.71158 185.711 7.29191C186.594 7.52572 187.169 7.81024 187.768 8.33706C184.266 8.00178 181.815 8.62436 178.319 12.0809C181.539 10.74 182.263 10.3682 185.91 10.6808C182.596 11.2752 178.452 12.9457 177.273 17.7657" fill="white"></path></svg>