<svg width="26" height="26" viewBox="0 0 26 26" fill="none" xmlns="http://www.w3.org/2000/svg"><path d="M11.5675 15.7944H5.22701C2.89248 15.7944 1 13.9019 1 11.5674V5.22692C1 2.89239 2.89248 0.999908 5.22701 0.999908H11.5675C13.902 0.999908 15.7945 2.89239 15.7945 5.22692V11.5674C15.7945 13.9019 13.902 15.7944 11.5675 15.7944Z" fill="#45B4A8" stroke="#45B4A8" stroke-width="0.785714" stroke-miterlimit="10" stroke-linecap="round" stroke-linejoin="round"></path><path d="M18.2308 10.2055H20.3443C22.6789 10.2055 24.5713 12.098 24.5713 14.4325V20.773C24.5713 23.1075 22.6789 25 20.3443 25H14.0038C11.6693 25 9.77682 23.1075 9.77682 20.773V18.6595" stroke="#fff" stroke-width="1.08571" stroke-miterlimit="10" stroke-linecap="round" stroke-linejoin="round"></path><path d="M5 11.3406L8.17026 5.00006L11.3405 11.3406" stroke="#fff" stroke-width="1.08571" stroke-miterlimit="10" stroke-linecap="round" stroke-linejoin="round"></path><path d="M6.5 9H10" stroke="#fff" stroke-width="1.08571" stroke-miterlimit="10" stroke-linecap="round" stroke-linejoin="round"></path><path d="M18.9772 21.8904C18.6037 21.8904 18.2385 21.8462 17.8817 21.7578C17.5304 21.6694 17.2126 21.5285 16.9283 21.3351C16.6439 21.1472 16.4181 20.9041 16.2509 20.6057C16.0836 20.3074 16 19.9482 16 19.5283C16 19.0752 16.092 18.6608 16.276 18.285C16.46 17.9038 16.7192 17.5667 17.0537 17.2739C17.3882 16.981 17.7841 16.7379 18.2413 16.5445C18.704 16.3456 19.2086 16.2047 19.7549 16.1218L20.0309 17.2158C19.5403 17.3042 19.1138 17.4203 18.7514 17.5639C18.3946 17.7076 18.0991 17.8761 17.8649 18.0695C17.6308 18.2629 17.4551 18.4701 17.3381 18.6911C17.2266 18.9177 17.1708 19.1553 17.1708 19.4039C17.1708 19.6029 17.207 19.7769 17.2795 19.9261C17.3576 20.0753 17.4607 20.1996 17.589 20.2991C17.7172 20.4041 17.8594 20.4869 18.0155 20.5477C18.1716 20.614 18.3333 20.661 18.5005 20.6886C18.6678 20.7162 18.8267 20.7301 18.9772 20.7301C19.3619 20.7301 19.7187 20.6941 20.0477 20.6223C20.3822 20.5505 20.6749 20.4621 20.9258 20.3571L21.2603 21.4263C21.1265 21.4926 20.9369 21.5616 20.6916 21.6335C20.4519 21.7053 20.1815 21.7661 19.8804 21.8158C19.5849 21.8655 19.2838 21.8904 18.9772 21.8904ZM17.313 17.2987C17.1178 17.2214 16.9366 17.1109 16.7694 16.9672C16.6077 16.8235 16.4767 16.6467 16.3763 16.4367C16.2816 16.2213 16.2342 15.9754 16.2342 15.6991C16.2342 15.351 16.3262 15.0498 16.5101 14.7957C16.6941 14.5415 16.9394 14.3453 17.2461 14.2072C17.5527 14.0691 17.8872 14 18.2496 14C18.428 14 18.5925 14.0111 18.743 14.0332C18.8991 14.0553 19.058 14.0884 19.2197 14.1326L19.0357 15.2349C18.9187 15.2073 18.7988 15.1852 18.6761 15.1686C18.5535 15.1521 18.4448 15.1438 18.35 15.1438C18.1548 15.1438 17.9848 15.1714 17.8398 15.2267C17.7005 15.2819 17.5917 15.362 17.5137 15.467C17.4412 15.5665 17.405 15.6853 17.405 15.8234C17.405 15.9339 17.4384 16.0389 17.5053 16.1384C17.5778 16.2378 17.6698 16.3262 17.7813 16.4036C17.8928 16.4754 18.0155 16.5362 18.1493 16.5859C18.2831 16.6301 18.4141 16.655 18.5423 16.6605L17.313 17.2987Z" fill="#fff"></path></svg>